<svg width="216" height="42" viewBox="0 0 216 42" fill="none" xmlns="http://www.w3.org/2000/svg">
<g clip-path="url(#clip0_1_847)">
<path d="M25.056 7.89233L12.528 15.7847L25.056 23.677L12.528 31.5693L0 23.6343L12.528 15.742L0 7.89233L12.528 0L25.056 7.89233ZM12.4632 34.1077L24.9912 26.2153L37.5192 34.1077L24.9912 42L12.4632 34.1077ZM25.056 23.6343L37.584 15.742L25.056 7.89233L37.5192 0L50.0472 7.89233L37.5192 15.7847L50.0472 23.677L37.5192 31.5693L25.056 23.6343Z" fill="#101010"/>
<path d="M59.875 7.89237H70.0054C76.4638 7.89237 81.799 11.5826 81.799 20.0082V21.7786C81.799 30.2682 76.8094 34.0864 70.1998 34.0864H59.875V7.89237ZM65.5342 12.6491V29.3083H69.8758C73.5478 29.3083 76.0102 26.9406 76.0102 21.672V20.2855C76.0102 15.0168 73.4182 12.6491 69.6814 12.6491H65.5342ZM84.8014 12.9051H89.3374L90.0718 17.8324C90.9358 14.4835 93.139 12.6918 97.135 12.6918H98.539V18.3444H96.2062C91.6054 18.3444 90.4822 19.9228 90.4822 24.4023V34.1504H84.8878V12.9051H84.8014ZM99.6622 23.9543V23.3571C99.6622 16.254 104.263 12.3718 110.527 12.3718C116.921 12.3718 121.392 16.254 121.392 23.3571V23.9543C121.392 30.9294 117.05 34.6836 110.527 34.6836C103.593 34.6196 99.6622 30.9508 99.6622 23.9543ZM115.668 23.8903V23.3571C115.668 19.4109 113.659 17.0432 110.462 17.0432C107.33 17.0432 105.257 19.2189 105.257 23.3571V23.8903C105.257 27.7085 107.265 29.8842 110.462 29.8842C113.659 29.8203 115.668 27.7085 115.668 23.8903ZM124.329 12.9051H128.995L129.535 16.9152C130.658 14.2276 133.056 12.3718 136.598 12.3718C142.063 12.3718 145.67 16.254 145.67 23.4424V24.0397C145.67 31.0148 141.674 34.705 136.598 34.705C133.207 34.705 130.874 33.1905 129.729 30.7588V41.4881H124.265L124.329 12.9051ZM139.989 23.8903V23.4211C139.989 19.1976 137.786 17.1072 134.849 17.1072C131.717 17.1072 129.643 19.4749 129.643 23.4211V23.8263C129.643 27.5805 131.652 29.9482 134.784 29.9482C138.002 29.8842 139.989 27.8578 139.989 23.8903ZM153.943 30.2255L153.468 34.1077H148.673V5.80197H154.137V16.6593C155.347 13.8863 157.745 12.3718 161.136 12.3718C166.277 12.4358 170.078 15.934 170.078 22.9731V23.6344C170.078 30.6735 166.471 34.705 161.006 34.705C157.399 34.6196 155.066 32.9772 153.943 30.2255ZM164.333 23.6344V23.1011C164.333 19.2189 162.194 17.0432 159.192 17.0432C156.125 17.0432 153.986 19.4749 153.986 23.1651V23.6344C153.986 27.5805 156.06 29.8842 159.127 29.8842C162.41 29.8842 164.333 27.8578 164.333 23.6344ZM172.476 23.9543V23.3571C172.476 16.254 177.077 12.3718 183.341 12.3718C189.734 12.3718 194.205 16.254 194.205 23.3571V23.9543C194.205 30.9294 189.799 34.6836 183.341 34.6836C176.407 34.6196 172.476 30.9508 172.476 23.9543ZM188.525 23.8903V23.3571C188.525 19.4109 186.516 17.0432 183.319 17.0432C180.187 17.0432 178.113 19.2189 178.113 23.3571V23.8903C178.113 27.7085 180.122 29.8842 183.319 29.8842C186.537 29.8203 188.525 27.7085 188.525 23.8903ZM201.528 23.1011L193.989 12.9051H200.448L204.789 19.2829L209.196 12.9051H215.589L207.943 23.0371L216 34.1077H209.671L204.746 27.0686L199.951 34.1077H193.341L201.528 23.1011Z" fill="#101010"/>
</g>
<defs>
<clipPath id="clip0_1_847">
<rect width="216" height="42" fill="white"/>
</clipPath>
</defs>
</svg>
