<svg width="186" height="64" viewBox="0 0 186 64" fill="none" xmlns="http://www.w3.org/2000/svg">
<path d="M167.732 26.0487C169.967 26.0487 171.778 24.2387 171.778 22.006C171.778 19.7733 169.967 17.9633 167.732 17.9633C165.497 17.9633 163.686 19.7733 163.686 22.006C163.686 24.2387 165.497 26.0487 167.732 26.0487Z" fill="#101010"/>
<path d="M109.938 39.2447C111.923 39.2447 113.068 37.7573 112.992 36.308C112.954 35.5452 112.877 35.0494 112.801 34.6681C111.579 29.4049 107.304 25.5148 102.227 25.5148C96.1957 25.5148 91.3096 30.9686 91.3096 37.681C91.3096 44.3934 96.1957 49.8471 102.227 49.8471C106.006 49.8471 108.716 48.4742 110.663 46.3003C111.618 45.2324 111.427 43.5924 110.282 42.7915C109.327 42.1432 108.144 42.372 107.266 43.0966C106.426 43.8213 104.823 45.2705 102.227 45.2705C99.1732 45.2705 96.5774 42.639 96.0048 39.1684H109.938V39.2447ZM102.189 30.1296C104.937 30.1296 107.304 32.2653 108.182 35.202H96.1957C97.0737 32.2272 99.4404 30.1296 102.189 30.1296Z" fill="#101010"/>
<path d="M91.5385 27.9172C91.5385 26.7731 90.6987 25.8578 89.6298 25.6671C86.3088 25.1713 83.1786 26.3917 81.3845 28.6419V28.3368C81.3845 26.9257 80.2393 26.0485 79.0941 26.0485C77.8344 26.0485 76.8037 27.0782 76.8037 28.3368V47.0246C76.8037 48.245 77.7199 49.3129 78.9414 49.3892C80.2774 49.4655 81.3845 48.4357 81.3845 47.1009V37.4519C81.3845 33.1804 84.591 29.6716 89.0191 30.1674C89.1718 30.1674 89.3245 30.1674 89.4771 30.1674C90.6223 30.0911 91.5385 29.0995 91.5385 27.9172Z" fill="#101010"/>
<path d="M170.022 30.3585C170.022 29.0999 168.991 28.0702 167.732 28.0702C166.472 28.0702 165.441 29.0999 165.441 30.3585C165.441 30.4347 165.441 46.3766 165.441 47.1012C165.441 48.3598 166.472 49.3895 167.732 49.3895C168.991 49.3895 170.022 48.3598 170.022 47.1012C170.022 46.4147 170.022 30.4729 170.022 30.3585Z" fill="#101010"/>
<path d="M135.972 17.6963C135.972 16.4378 134.941 15.408 133.682 15.408C132.422 15.408 131.391 16.4378 131.391 17.6963V27.8793C129.826 26.3156 127.879 25.5528 125.551 25.5528C119.519 25.5528 114.633 31.0066 114.633 37.719C114.633 44.4314 119.519 49.8852 125.551 49.8852C127.879 49.8852 129.864 49.0842 131.429 47.5206C131.62 48.5884 132.575 49.3894 133.682 49.3894C134.941 49.3894 135.972 48.3596 135.972 47.101V17.6963ZM125.589 45.3467C122.077 45.3467 119.252 41.9524 119.252 37.719C119.252 33.5238 122.077 30.0913 125.589 30.0913C129.101 30.0913 131.926 33.4856 131.926 37.719C131.926 41.9524 129.063 45.3467 125.589 45.3467Z" fill="#101010"/>
<path d="M159.868 17.6962C159.868 16.4376 158.837 15.4079 157.578 15.4079C156.318 15.4079 155.287 16.4376 155.287 17.6962V27.8791C153.722 26.3155 151.775 25.5527 149.447 25.5527C143.415 25.5527 138.529 31.0065 138.529 37.7188C138.529 44.4312 143.415 49.885 149.447 49.885C151.775 49.885 153.76 49.0841 155.325 47.5204C155.516 48.5883 156.471 49.3892 157.578 49.3892C158.837 49.3892 159.868 48.3595 159.868 47.1009V17.6962ZM149.447 45.3465C145.935 45.3465 143.11 41.9522 143.11 37.7188C143.11 33.5236 145.935 30.0912 149.447 30.0912C152.959 30.0912 155.784 33.4855 155.784 37.7188C155.784 41.9522 152.959 45.3465 149.447 45.3465Z" fill="#101010"/>
<path d="M181.627 47.1392V30.1294H183.65C184.719 30.1294 185.673 29.3285 185.75 28.2225C185.826 27.0402 184.872 26.0486 183.726 26.0486H181.627V22.845C181.627 21.6245 180.711 20.5567 179.489 20.4804C178.153 20.4041 177.046 21.4338 177.046 22.7687V26.0867H175.137C174.069 26.0867 173.114 26.8876 173.038 27.9937C172.962 29.1759 173.916 30.1676 175.061 30.1676H177.008V47.1773C177.008 48.4359 178.039 49.4656 179.298 49.4656C180.634 49.3893 181.627 48.3977 181.627 47.1392Z" fill="#101010"/>
<path d="M31.989 63.92C49.656 63.92 63.978 49.611 63.978 31.96C63.978 14.309 49.656 0 31.989 0C14.322 0 0 14.309 0 31.96C0 49.611 14.322 63.92 31.989 63.92Z" fill="#101010"/>
<path d="M53.3277 31.9598C53.3277 29.3663 51.2281 27.3069 48.6705 27.3069C47.4108 27.3069 46.2656 27.8027 45.4258 28.6036C42.2193 26.3153 37.8294 24.8279 32.9433 24.6372L35.0809 14.6449L42.0284 16.1323C42.1048 17.8867 43.5554 19.2978 45.3495 19.2978C47.1818 19.2978 48.6705 17.8104 48.6705 15.9798C48.6705 14.1491 47.1818 12.6617 45.3495 12.6617C44.0516 12.6617 42.9064 13.4245 42.372 14.5305L34.6229 12.8905C34.3938 12.8524 34.1648 12.8905 34.0121 13.005C33.8212 13.1194 33.7067 13.3101 33.6685 13.5389L31.3018 24.6753C26.3393 24.8279 21.8731 26.3153 18.6284 28.6417C17.7886 27.8408 16.6434 27.345 15.3837 27.345C12.7879 27.345 10.7266 29.4426 10.7266 31.9979C10.7266 33.9048 11.8718 35.5066 13.475 36.2313C13.3987 36.6889 13.3605 37.1466 13.3605 37.6424C13.3605 44.8124 21.7204 50.6476 32.0271 50.6476C42.3338 50.6476 50.6937 44.8505 50.6937 37.6424C50.6937 37.1847 50.6555 36.6889 50.5792 36.2313C52.1825 35.5066 53.3277 33.8667 53.3277 31.9598ZM21.3387 35.2778C21.3387 33.4472 22.8274 31.9598 24.6597 31.9598C26.492 31.9598 27.9808 33.4472 27.9808 35.2778C27.9808 37.1084 26.492 38.5958 24.6597 38.5958C22.8274 38.634 21.3387 37.1084 21.3387 35.2778ZM39.9289 44.0878C37.6385 46.3761 33.2868 46.5286 32.0271 46.5286C30.7292 46.5286 26.3775 46.3379 24.1253 44.0878C23.7817 43.7445 23.7817 43.2106 24.1253 42.8673C24.4688 42.5241 25.0033 42.5241 25.3468 42.8673C26.7974 44.3166 29.8512 44.8124 32.0271 44.8124C34.203 44.8124 37.295 44.3166 38.7074 42.8673C39.0509 42.5241 39.5854 42.5241 39.9289 42.8673C40.2343 43.2106 40.2343 43.7445 39.9289 44.0878ZM39.3182 38.634C37.4858 38.634 35.9971 37.1466 35.9971 35.3159C35.9971 33.4853 37.4858 31.9979 39.3182 31.9979C41.1505 31.9979 42.6392 33.4853 42.6392 35.3159C42.6392 37.1084 41.1505 38.634 39.3182 38.634Z" fill="white"/>
</svg>
